<?xml version="1.0" encoding="UTF-8"?>
<svg version="1.1" xmlns="http://www.w3.org/2000/svg" width="142" height="142">
<path d="M0 0 C1.58658866 0.08835546 3.17682895 0.11474675 4.76586914 0.11010742 C5.7577272 0.11068649 6.74958527 0.11126556 7.77149963 0.11186218 C8.84850632 0.10975235 9.925513 0.10764252 11.03515625 0.10546875 C13.31185839 0.11893191 15.58855174 0.13395635 17.86523438 0.15039062 C21.45758368 0.17316887 25.04894591 0.18754716 28.64135742 0.17504883 C32.10667714 0.16619713 35.57003915 0.19522847 39.03515625 0.23046875 C40.62941185 0.21212227 40.62941185 0.21212227 42.25587463 0.19340515 C49.46221213 0.30953885 54.83106126 1.75026671 60 7 C64.23893121 12.83759048 64.58553595 17.47108299 64.54931641 24.56591797 C64.55953827 25.60586914 64.56976013 26.64582031 64.58029175 27.71728516 C64.6080083 31.14248918 64.60617616 34.56688491 64.6015625 37.9921875 C64.60934073 40.38201189 64.61801097 42.77183353 64.62753296 45.16165161 C64.64244123 50.16661549 64.64188687 55.17129716 64.63134766 60.17626953 C64.61976195 66.577679 64.65361717 72.97793043 64.700037 79.37914848 C64.72955797 84.31383981 64.73124888 89.24825374 64.72501755 94.18301773 C64.72604172 96.54244403 64.73647499 98.90188632 64.75664139 101.26122665 C64.78142757 104.56667195 64.76775773 107.86988117 64.74462891 111.17529297 C64.75991638 112.14181793 64.77520386 113.1083429 64.79095459 114.10415649 C64.68260198 121.14030911 62.78579133 125.79469763 58 131 C52.90043416 135.55978752 47.37405484 135.58421577 40.80126953 135.54931641 C39.80033264 135.55953827 38.79939575 135.56976013 37.76812744 135.58029175 C34.47277638 135.60799889 31.17826591 135.60617691 27.8828125 135.6015625 C25.58266898 135.60934128 23.28252832 135.61801163 20.98239136 135.62753296 C16.16573771 135.64243922 11.3493773 135.64188838 6.53271484 135.63134766 C0.3734243 135.6197624 -5.78466259 135.65361676 -11.9437542 135.700037 C-16.69315558 135.72956413 -21.44226884 135.73124806 -26.19174576 135.72501755 C-28.4618582 135.72604142 -30.7319873 135.73646906 -33.00201035 135.75664139 C-36.18295237 135.78143986 -39.36157296 135.76775107 -42.54248047 135.74462891 C-43.47160248 135.75991638 -44.40072449 135.77520386 -45.35800171 135.79095459 C-52.28405025 135.68020587 -56.86932357 133.68125223 -62 129 C-66.66203538 123.83345965 -66.58336481 118.10362441 -66.54931641 111.43408203 C-66.55953827 110.39413086 -66.56976013 109.35417969 -66.58029175 108.28271484 C-66.6080083 104.85751082 -66.60617616 101.43311509 -66.6015625 98.0078125 C-66.60934073 95.61798811 -66.61801097 93.22816647 -66.62753296 90.83834839 C-66.64244123 85.83338451 -66.64188687 80.82870284 -66.63134766 75.82373047 C-66.61976195 69.422321 -66.65361717 63.02206957 -66.700037 56.62085152 C-66.72955797 51.68616019 -66.73124888 46.75174626 -66.72501755 41.81698227 C-66.72604172 39.45755597 -66.73647499 37.09811368 -66.75664139 34.73877335 C-66.78142757 31.43332805 -66.76775773 28.13011883 -66.74462891 24.82470703 C-66.75991638 23.85818207 -66.77520386 22.8916571 -66.79095459 21.89584351 C-66.6826388 14.86208218 -64.63028518 10.30428655 -60 5 C-54.74985728 0.498338 -49.38415074 0.41202196 -42.68359375 0.42578125 C-41.7089064 0.41161667 -40.73421906 0.39745209 -39.72999573 0.38285828 C-36.63238371 0.34113338 -33.53535274 0.3257562 -30.4375 0.3125 C-27.33634802 0.28335519 -24.23533942 0.2487172 -21.1342926 0.21000671 C-19.20999143 0.18768654 -17.28560218 0.17176631 -15.3611908 0.16316223 C-10.75659273 0.12626586 -3.92948547 -1.96474273 0 0 Z " fill="#FE6601" transform="translate(72,3)"/>
<path d="M0 0 C1.06734375 -0.00257812 2.1346875 -0.00515625 3.234375 -0.0078125 C4.91660156 0.00378906 4.91660156 0.00378906 6.6328125 0.015625 C7.715625 0.00789062 8.7984375 0.00015625 9.9140625 -0.0078125 C18.32975303 0.01227268 26.72582723 0.58829658 34.7578125 3.265625 C35.71239899 11.61825676 35.86820584 19.86346535 35.7578125 28.265625 C31.4100358 27.7825387 27.21297643 27.16590998 22.9453125 26.203125 C16.21235095 24.83370909 9.75012115 24.33697749 3.1328125 26.390625 C0.54885756 28.11020727 0.54885756 28.11020727 -0.3671875 31.078125 C-0.17834637 35.89357374 2.15850755 38.76530615 5.56835938 41.96411133 C7.70450439 43.77378793 9.87531993 45.5278435 12.0703125 47.265625 C13.54609785 48.45247257 15.02136377 49.63996633 16.49609375 50.828125 C17.2120874 51.4044165 17.92808105 51.98070801 18.66577148 52.57446289 C28.10154007 60.20214045 28.10154007 60.20214045 31.5703125 65.328125 C32.41529297 66.55208984 32.41529297 66.55208984 33.27734375 67.80078125 C37.35064312 74.58244854 37.99275151 81.23713082 36.10546875 88.921875 C32.63603862 98.57076222 26.76237402 104.17736616 17.89453125 109.0390625 C9.88698045 112.17028411 1.77850805 112.62322273 -6.7421875 112.578125 C-8.29691772 112.57510376 -8.29691772 112.57510376 -9.88305664 112.57202148 C-34.24862642 112.25918608 -34.24862642 112.25918608 -38.2421875 108.265625 C-38.47100288 106.26945995 -38.63750438 104.26608307 -38.77734375 102.26171875 C-38.90786133 100.43930664 -38.90786133 100.43930664 -39.04101562 98.58007812 C-39.12802734 97.30068359 -39.21503906 96.02128906 -39.3046875 94.703125 C-39.39556641 93.41986328 -39.48644531 92.13660156 -39.58007812 90.81445312 C-39.80487696 87.63177485 -40.02538568 84.44885642 -40.2421875 81.265625 C-37.25696973 82.0026818 -34.31220704 82.81778423 -31.3671875 83.703125 C-30.54476562 83.94933594 -29.72234375 84.19554688 -28.875 84.44921875 C-27.01706803 85.02534306 -25.17773326 85.66317489 -23.35546875 86.34375 C-16.74202977 88.30205816 -8.37029717 88.55402619 -1.9296875 85.828125 C0.5952141 84.51352092 0.5952141 84.51352092 1.7578125 83.265625 C1.52693356 77.26277248 0.06437928 75.26165023 -4.2421875 71.265625 C-4.76780273 70.76933594 -5.29341797 70.27304688 -5.83496094 69.76171875 C-7.56610597 68.12837282 -9.30893087 66.50833739 -11.0546875 64.890625 C-11.6734375 64.31481689 -12.2921875 63.73900879 -12.9296875 63.14575195 C-16.14012004 60.16878247 -19.38487646 57.26495417 -22.7421875 54.453125 C-28.01674756 49.89164924 -31.81875856 44.81114802 -34.2421875 38.265625 C-33.00855469 38.11867188 -33.00855469 38.11867188 -31.75 37.96875 C-20.78296795 36.49972492 -11.54085371 33.89307556 -3.2421875 26.265625 C-0.66527134 22.40025076 -0.65659325 20.87717972 -1.2421875 16.265625 C-2.6595423 13.58748366 -4.22563861 11.10245033 -5.9296875 8.59765625 C-7.2421875 6.265625 -7.2421875 6.265625 -7.2421875 2.265625 C-4.65485414 -0.32170836 -3.59688297 0.00844764 0 0 Z " fill="#FFFCFB" transform="translate(73.2421875,15.734375)"/>
<path d="M0 0 C-0.75457612 6.84893713 -5.78342609 10.52010018 -10.4375 15.1875 C-11.30310547 16.10208984 -12.16871094 17.01667969 -13.06054688 17.95898438 C-18.74400949 23.69322998 -22.89582225 26.49277216 -31 27 C-32.11632812 27.13664062 -33.23265625 27.27328125 -34.3828125 27.4140625 C-35.74019531 27.51847656 -35.74019531 27.51847656 -37.125 27.625 C-38.05570313 27.69976562 -38.98640625 27.77453125 -39.9453125 27.8515625 C-40.62335937 27.90054688 -41.30140625 27.94953125 -42 28 C-43.06463439 32.34725708 -43.28698971 34.40476209 -41.3125 38.5 C-40.55648216 39.67632146 -39.78509518 40.84288259 -39 42 C-34.93002747 48.31776782 -34.93002747 48.31776782 -35.25 51.4375 C-35.4975 51.953125 -35.745 52.46875 -36 53 C-38.64 53.33 -41.28 53.66 -44 54 C-44.07347656 52.80503906 -44.07347656 52.80503906 -44.1484375 51.5859375 C-44.54016155 46.03426222 -45.12053198 41.26251047 -47 36 C-47.31034483 30.62068966 -47.31034483 30.62068966 -46 28 C-49.3 28 -52.6 28 -56 28 C-55.51149406 23.50683532 -54.04481099 21.55868541 -50.8515625 18.42578125 C-50.01109375 17.59369141 -49.170625 16.76160156 -48.3046875 15.90429688 C-46.97824219 14.62135742 -46.97824219 14.62135742 -45.625 13.3125 C-44.7484375 12.44560547 -43.871875 11.57871094 -42.96875 10.68554688 C-33.99355245 1.86817008 -33.99355245 1.86817008 -28.28125 1.3671875 C-27.34796875 1.28339844 -26.4146875 1.19960937 -25.453125 1.11328125 C-23.99132813 0.99533203 -23.99132813 0.99533203 -22.5 0.875 C-21.55640625 0.78863281 -20.6128125 0.70226562 -19.640625 0.61328125 C-13.08084406 0.04870994 -6.58198051 -0.10113775 0 0 Z " fill="#050443" transform="translate(72,6)"/>
<path d="M0 0 C0.66 0 1.32 0 2 0 C5.36475086 4.23362323 7.86047157 8.3256588 8.3125 13.75 C5.63058841 20.39092393 -0.78014588 23.94463306 -7 27 C-12.33829129 28.92923874 -18.36601251 30.09453745 -24 29 C-25.875 27 -25.875 27 -27 24 C-27.41185547 23.00613281 -27.41185547 23.00613281 -27.83203125 21.9921875 C-29.12216053 18.7992648 -30 16.48153433 -30 13 C-28.57107422 12.92652344 -28.57107422 12.92652344 -27.11328125 12.8515625 C-25.85902344 12.77679688 -24.60476562 12.70203125 -23.3125 12.625 C-21.45044922 12.52058594 -21.45044922 12.52058594 -19.55078125 12.4140625 C-13.39697532 11.69645697 -10.25322939 9.63736813 -5.75 5.4375 C-4.87859375 4.63183594 -4.0071875 3.82617188 -3.109375 2.99609375 C-1.54084514 1.51227646 -1.54084514 1.51227646 0 0 Z " fill="#050441" transform="translate(63,23)"/>
<path d="M0 0 C0 0.66 0 1.32 0 2 C0.60328125 2.24363281 1.2065625 2.48726562 1.828125 2.73828125 C5.73530922 5.0081023 7.29519098 8.94188599 9 13 C9.67424479 16.55510889 9.77753595 18.57347234 8.03125 21.77734375 C2.73195429 28.81739648 -6.45509284 33.44638052 -15 35 C-18.34145977 35.13799539 -21.65842666 35.12102278 -25 35 C-24.67 34.34 -24.34 33.68 -24 33 C-21.53768827 32.53569548 -19.10388024 32.15876253 -16.625 31.8125 C-8.18979087 30.44638644 -1.03220682 27.51431851 4.796875 20.98828125 C6.29843078 18.90592526 6.29843078 18.90592526 5.9375 15.625 C4.92564615 11.71249846 3.34610837 9.25427935 1 6 C1 5.34 1 4.68 1 4 C0.23816406 4.67095703 0.23816406 4.67095703 -0.5390625 5.35546875 C-1.96870726 6.61109308 -3.40114547 7.8635419 -4.8359375 9.11328125 C-6.13905352 10.24939143 -7.43747972 11.39096038 -8.7265625 12.54296875 C-13.91927194 17.08326085 -17.44530366 17.12550645 -24.25 17.0625 C-25.51328125 17.05347656 -26.7765625 17.04445313 -28.078125 17.03515625 C-29.04234375 17.02355469 -30.0065625 17.01195313 -31 17 C-30.71125 17.75925781 -30.4225 18.51851562 -30.125 19.30078125 C-29.75375 20.29464844 -29.3825 21.28851563 -29 22.3125 C-28.62875 23.29863281 -28.2575 24.28476562 -27.875 25.30078125 C-27 28 -27 28 -27 31 C-27.99 31.33 -28.98 31.66 -30 32 C-34.15724896 26.8833859 -35.88928243 23.64305415 -36 17 C-34 14 -34 14 -32.15576172 13.58691406 C-31.05385498 13.55162598 -31.05385498 13.55162598 -29.9296875 13.515625 C-28.71369873 13.44927856 -28.71369873 13.44927856 -27.47314453 13.3815918 C-26.61575684 13.3381665 -25.75836914 13.29474121 -24.875 13.25 C-17.98514269 12.72528425 -13.27239941 12.17003916 -8.4375 6.8203125 C-7.963125 6.21960938 -7.48875 5.61890625 -7 5 C-2.2238806 0 -2.2238806 0 0 0 Z " fill="#ED6510" transform="translate(64,19)"/>
<path d="M0 0 C0.66 0.33 1.32 0.66 2 1 C0.50215434 4.56744962 -1.56558216 6.68508763 -4.375 9.3125 C-11.10594215 15.92957933 -11.10594215 15.92957933 -13.125 24.9375 C-12.35474019 29.17392898 -10.05764858 31.84468857 -7.3671875 35.1015625 C-5.54463037 37.63231326 -5.15404461 39.91910785 -5 43 C-10.625 45 -10.625 45 -14 45 C-14.04898437 44.20335937 -14.09796875 43.40671875 -14.1484375 42.5859375 C-14.54779935 36.08681227 -14.54779935 36.08681227 -16.125 29.8125 C-17.37979124 25.77924244 -17.17468025 22.05062154 -16 18 C-13.21188677 13.16988834 -9.71809391 9.46968429 -5.75 5.625 C-5.19570313 5.07972656 -4.64140625 4.53445312 -4.0703125 3.97265625 C-2.71811269 2.64377023 -1.3596965 1.32121452 0 0 Z " fill="#5434F3" transform="translate(42,15)"/>
<path d="M0 0 C0.66 0 1.32 0 2 0 C8.25306695 9.84858044 8.25306695 9.84858044 7 16 C2.79044053 23.72318371 -5.70859296 27.34366746 -13.5625 30.375 C-18.07379271 31.19523504 -22.42930436 31.16553827 -27 31 C-26.67 30.34 -26.34 29.68 -26 29 C-23.53768827 28.53569548 -21.10388024 28.15876253 -18.625 27.8125 C-10.19089678 26.44656554 -3.02600715 23.51612976 2.796875 16.984375 C4.2935753 14.91452578 4.2935753 14.91452578 3.9375 11.6875 C2.86614055 7.47348617 1.31395611 4.65754352 -1 1 C-0.67 0.67 -0.34 0.34 0 0 Z " fill="#F1701D" transform="translate(66,23)"/>
<path d="M0 0 C0 0.99 0 1.98 0 3 C-7.1963309 6.06459719 -13.16465389 7.61187085 -21 7 C-20.67 6.34 -20.34 5.68 -20 5 C-17.38688621 4.40946581 -14.82839932 3.92051065 -12.1875 3.5 C-5.83642724 2.55499834 -5.83642724 2.55499834 0 0 Z " fill="#F56C13" transform="translate(60,47)"/>
<path d="M0 0 C0.99 0.33 1.98 0.66 3 1 C1.73427767 2.15147661 0.46222094 3.29599314 -0.8125 4.4375 C-1.52019531 5.07558594 -2.22789063 5.71367188 -2.95703125 6.37109375 C-5 8 -5 8 -8 9 C-8 8.01 -8 7.02 -8 6 C-6.35546875 4.359375 -6.35546875 4.359375 -4.1875 2.75 C-3.47980469 2.20859375 -2.77210937 1.6671875 -2.04296875 1.109375 C-1.36878906 0.74328125 -0.69460937 0.3771875 0 0 Z " fill="#F97721" transform="translate(69,40)"/>
</svg>
