<?xml version="1.0" encoding="UTF-8"?>
<svg version="1.1" xmlns="http://www.w3.org/2000/svg" width="479" height="142">
<path d="M0 0 C1.56363561 -0.00202421 3.1272703 -0.00493854 4.69090271 -0.00869751 C7.95638075 -0.01310324 11.22161142 -0.00674582 14.48706055 0.00732422 C18.6587136 0.0244295 22.82978807 0.01455561 27.00142002 -0.00339317 C30.22633677 -0.01426649 33.45111776 -0.01076872 36.67603874 -0.0030098 C38.21372485 -0.00101832 39.75142355 -0.00342983 41.28909492 -0.01044846 C43.44248962 -0.01812354 45.59496432 -0.00637656 47.74829102 0.01025391 C49.5807412 0.01383408 49.5807412 0.01383408 51.45021057 0.01748657 C56.4272397 0.56178611 60.30805447 2.08043267 64.24609375 5.2734375 C67.86938515 9.83610074 68.22849753 14.27921227 68.20825195 19.93920898 C68.21336288 20.68132629 68.21847382 21.4234436 68.22373962 22.18804932 C68.23759651 24.63195953 68.23668187 27.07558651 68.234375 29.51953125 C68.23826399 31.22437138 68.24259907 32.92921054 68.24736023 34.63404846 C68.25481397 38.20406233 68.25453724 41.77397729 68.24926758 45.34399414 C68.24347305 49.91150364 68.2604075 54.47860761 68.28361225 59.04605007 C68.29836691 62.56600804 68.29921896 66.08586871 68.29610252 69.60585213 C68.29661483 71.28950873 68.30183557 72.9731709 68.31191444 74.65679741 C68.32429583 77.01422112 68.3174776 79.37085969 68.3059082 81.72827148 C68.31355194 82.41885147 68.32119568 83.10943146 68.32907104 83.82093811 C68.26128671 90.09184068 66.52308077 93.72888161 62.23497009 98.23300171 C58.39277654 100.75316984 55.56005188 101.10917059 51.11157227 101.04541016 C50.35140808 101.05417175 49.5912439 101.06293335 48.80804443 101.07196045 C46.30893941 101.09386818 43.81162129 101.07943256 41.3125 101.0625 C39.56664187 101.065871 37.82078604 101.07072599 36.07493591 101.07699585 C32.42074175 101.08435574 28.76715991 101.0736919 25.11303711 101.05029297 C20.44106234 101.02182639 15.77052514 101.03820058 11.09860325 101.06815529 C7.49445371 101.08627055 3.89064187 101.08045063 0.28648186 101.06751633 C-1.43541702 101.06419287 -3.15734706 101.06823195 -4.87920952 101.07991409 C-7.29195553 101.09269104 -9.70241359 101.07315338 -12.11499023 101.04541016 C-13.17116295 101.06059189 -13.17116295 101.06059189 -14.24867249 101.07608032 C-19.79110655 100.95868963 -23.1379171 99.09051754 -27.06640625 95.3984375 C-29.76461662 91.9240849 -29.36896186 87.8499811 -29.37280273 83.61987305 C-29.38112625 82.84049377 -29.38944977 82.0611145 -29.39802551 81.25811768 C-29.42210354 78.68374623 -29.43089528 76.10962833 -29.4375 73.53515625 C-29.44646868 71.74160182 -29.45559057 69.94804815 -29.46485901 68.15449524 C-29.48134605 64.39440087 -29.48904848 60.63439551 -29.49194336 56.87426758 C-29.49732399 52.06561022 -29.5349917 47.25779417 -29.58068752 42.4493742 C-29.61049147 38.74407427 -29.61766765 35.03897602 -29.61866951 31.33356667 C-29.62286593 29.56139082 -29.63527701 27.78921405 -29.65618706 26.0171566 C-29.68316911 23.53254487 -29.67825678 21.04987099 -29.66577148 18.56518555 C-29.68060577 17.83922684 -29.69544006 17.11326813 -29.71072388 16.36531067 C-29.63193092 10.83419918 -27.85055725 7.27790072 -24.06640625 3.3984375 C-16.69978316 -0.86029804 -8.27154171 -0.03781256 0 0 Z " fill="#FD6603" transform="translate(48.06640625,19.6015625)"/>
<path d="M0 0 C0.80808105 -0.00064453 1.61616211 -0.00128906 2.44873047 -0.00195312 C8.68828272 0.05285628 14.46634545 0.79409325 20.5625 2.1875 C20.5625 8.1275 20.5625 14.0675 20.5625 20.1875 C14.63866361 20.1875 9.22373249 19.89852349 3.39453125 19.2109375 C0.2932904 19.18527206 -1.66194496 19.8580751 -4.4375 21.1875 C-4.61347343 25.32287562 -4.25749203 27.26541411 -1.4609375 30.41015625 C2.61689934 34.09030931 6.86436558 37.40993686 11.3125 40.625 C16.86488057 44.91502762 20.757552 49.99943721 22.1015625 56.9921875 C22.45022769 63.61682606 20.928091 68.2122504 16.5625 73.1875 C7.5267218 82.06510265 -0.04660861 82.37415492 -12.32177734 82.37280273 C-14.56236473 82.37499987 -16.80246763 82.39321358 -19.04296875 82.41210938 C-20.46874832 82.41504176 -21.89453022 82.41702759 -23.3203125 82.41796875 C-25.25994873 82.42413208 -25.25994873 82.42413208 -27.23876953 82.43041992 C-30.4375 82.1875 -30.4375 82.1875 -33.4375 80.1875 C-34.87058406 76.22970283 -34.54771149 72.09206984 -34.5 67.9375 C-34.49548828 67.19242187 -34.49097656 66.44734375 -34.48632812 65.6796875 C-34.47459246 63.8489236 -34.4566585 62.01820127 -34.4375 60.1875 C-32.99956608 60.49799726 -31.5621682 60.8109776 -30.125 61.125 C-29.32449219 61.29902344 -28.52398437 61.47304687 -27.69921875 61.65234375 C-25.4375 62.1875 -25.4375 62.1875 -22.4375 63.1875 C-20.12659583 63.2829687 -17.81287025 63.31735387 -15.5 63.3125 C-13.66115234 63.31636719 -13.66115234 63.31636719 -11.78515625 63.3203125 C-9.10987569 63.21417535 -6.96822572 62.98667654 -4.4375 62.1875 C-5.6577993 52.83187201 -13.86777909 47.32898216 -20.6875 41.5625 C-24.55184175 38.25581732 -27.79280531 34.54523557 -30.4375 30.1875 C-30.4375 29.5275 -30.4375 28.8675 -30.4375 28.1875 C-29.83164062 28.17332031 -29.22578125 28.15914062 -28.6015625 28.14453125 C-20.47150082 27.68174312 -14.40351193 25.02036567 -7.8125 20.3125 C-5.73177986 17.0968416 -5.92009714 14.93867072 -6.4375 11.1875 C-7.71504554 9.1514118 -9.04449818 7.14640881 -10.4375 5.1875 C-10.4375 3.8675 -10.4375 2.5475 -10.4375 1.1875 C-7.17169151 -0.44540425 -3.58643616 -0.00289754 0 0 Z " fill="#FEFAF8" transform="translate(74.4375,29.8125)"/>
<path d="M0 0 C1.81242052 -0.02687279 3.62495233 -0.04633715 5.4375 -0.0625 C6.44683594 -0.07410156 7.45617187 -0.08570312 8.49609375 -0.09765625 C11 0 11 0 12 1 C12.36760731 3.32817964 12.70241581 5.6618385 13 8 C18.445 8.495 18.445 8.495 24 9 C24.99 11.97 25.98 14.94 27 18 C28.32 15.03 29.64 12.06 31 9 C36.94 8.505 36.94 8.505 43 8 C41.76352424 14.18237881 39.45387284 19.74208459 37.07226562 25.54760742 C36.25325814 27.55451621 35.45473623 29.56883916 34.65625 31.58398438 C34.13145638 32.87030156 33.60545425 34.15612648 33.078125 35.44140625 C32.37284668 37.18466187 32.37284668 37.18466187 31.65332031 38.96313477 C29.59204956 42.74933484 27.15722359 45.13711056 23.125 46.75 C15.05 47.7 15.05 47.7 11 45 C10.29947539 42.336937 10.22255182 39.75964263 10 37 C13.07617188 36.70703125 13.07617188 36.70703125 16.15234375 36.4140625 C17.06693359 36.20910156 17.06693359 36.20910156 18 36 C19.33854507 33.32290986 18.68592897 32.3854747 17.78515625 29.5703125 C17.51123047 28.69246094 17.23730469 27.81460938 16.95507812 26.91015625 C16.66052734 25.99105469 16.36597656 25.07195312 16.0625 24.125 C15.4857478 22.31673479 14.91393809 20.50688393 14.34765625 18.6953125 C14.08992432 17.89109863 13.83219238 17.08688477 13.56665039 16.25830078 C13 14 13 14 13 10 C12.34 10 11.68 10 11 10 C11.01160156 11.21816406 11.02320313 12.43632813 11.03515625 13.69140625 C11.04454178 15.31510262 11.05364116 16.93880067 11.0625 18.5625 C11.07087891 19.36236328 11.07925781 20.16222656 11.08789062 20.98632812 C11.10742247 25.77163104 10.80437018 30.28145051 10 35 C6.77186442 35.22702385 3.54261311 35.42828723 0.3125 35.625 C-0.59951172 35.68945312 -1.51152344 35.75390625 -2.45117188 35.8203125 C-8.47897104 36.17102082 -12.46489085 36.0554939 -17.3125 32.125 C-19.90768075 27.31910973 -19.78971328 22.35012961 -19 17 C-16.92098216 12.9519959 -15.01052294 10.25591915 -11 8 C-7.3083635 7.67197024 -3.69540577 7.7670147 0 8 C0 5.36 0 2.72 0 0 Z M-6.8125 17.0625 C-8.60842137 19.99268751 -8.18977574 22.6472953 -8 26 C-6.16299211 26.77242269 -6.16299211 26.77242269 -4 27 C-2.12905797 26.13606305 -2.12905797 26.13606305 -1 24 C-0.45128017 21.31971468 -0.22440172 18.73770094 0 16 C-2.70313576 15.78082683 -4.43958382 15.67148017 -6.8125 17.0625 Z " fill="#FFFFFF" transform="translate(224,73)"/>
<path d="M0 0 C2.83021919 0.66706735 2.83021919 0.66706735 5.75 -0.5625 C9.90603587 -1.02428176 12.06321013 -0.97165141 15.6875 1.1875 C20.32607242 8.49676564 17.66296516 19.15560175 16.75 27.4375 C14.93757948 27.46437279 13.12504767 27.48383715 11.3125 27.5 C10.30316406 27.51160156 9.29382813 27.52320312 8.25390625 27.53515625 C5.75 27.4375 5.75 27.4375 4.75 26.4375 C4.67686433 23.90700598 4.65752473 21.40445163 4.6875 18.875 C4.69201172 18.16408203 4.69652344 17.45316406 4.70117188 16.72070312 C4.71299136 14.95959987 4.73092737 13.19853964 4.75 11.4375 C4.09 11.1075 3.43 10.7775 2.75 10.4375 C2.65912109 12.15259766 2.65912109 12.15259766 2.56640625 13.90234375 C2.48201572 15.39324305 2.39736698 16.88412775 2.3125 18.375 C2.27318359 19.12974609 2.23386719 19.88449219 2.19335938 20.66210938 C1.86328125 26.32421875 1.86328125 26.32421875 0.75 27.4375 C-2.9191577 27.58060287 -6.57715441 27.47971662 -10.25 27.4375 C-10.25 21.8275 -10.25 16.2175 -10.25 10.4375 C-11.24 10.9325 -11.24 10.9325 -12.25 11.4375 C-12.68242111 14.38265612 -12.68242111 14.38265612 -12.8125 17.8125 C-13.15728477 24.1593543 -13.15728477 24.1593543 -14.25 27.4375 C-17.88 27.4375 -21.51 27.4375 -25.25 27.4375 C-25.27886537 23.12501391 -25.29675255 18.81255238 -25.3125 14.5 C-25.32087891 13.26830078 -25.32925781 12.03660156 -25.33789062 10.76757812 C-25.34111328 9.59775391 -25.34433594 8.42792969 -25.34765625 7.22265625 C-25.35289307 6.13863525 -25.35812988 5.05461426 -25.36352539 3.93774414 C-25.25 1.4375 -25.25 1.4375 -24.25 0.4375 C-22.04667098 0.19826454 -19.8364216 0.02165217 -17.625 -0.125 C-16.41585937 -0.20878906 -15.20671875 -0.29257812 -13.9609375 -0.37890625 C-9.22463912 -0.61322838 -4.68220739 -0.81038205 0 0 Z " fill="#FFFFFF" transform="translate(176.25,40.5625)"/>
<path d="M0 0 C2.12999997 3.79039366 2.16702456 6.65736138 2 11 C-1.3 10.67 -4.6 10.34 -8 10 C-7.81171228 12.44480079 -7.81171228 12.44480079 -7 15 C-5.20067421 16.06716704 -5.20067421 16.06716704 -3 17 C0.46863294 19.75913984 1.86457055 21.05199387 2.5 25.5 C1.97378505 29.18350462 1.3124305 31.10946187 -1 34 C-3.87176059 35.75615099 -5.98302739 36.24309961 -9.328125 36.1953125 C-10.12734375 36.18886719 -10.9265625 36.18242188 -11.75 36.17578125 C-12.575 36.15902344 -13.4 36.14226562 -14.25 36.125 C-15.09046875 36.11597656 -15.9309375 36.10695312 -16.796875 36.09765625 C-18.86470604 36.07415817 -20.93238995 36.03828908 -23 36 C-23.33 32.37 -23.66 28.74 -24 25 C-20.37 25.33 -16.74 25.66 -13 26 C-14.74817623 22.50364755 -15.97565507 20.86410156 -18.625 18.1875 C-21.27089838 15.23355524 -21.95366135 14.3089243 -22.5625 10.25 C-21.65677966 5.01694915 -21.65677966 5.01694915 -20 3 C-13.69891602 -0.92067447 -7.22791164 -0.29346408 0 0 Z " fill="#FFFFFF" transform="translate(146,32)"/>
<path d="M0 0 C1.60725635 3.21451269 1.05748185 6.43612536 1 10 C-2.3 9.67 -5.6 9.34 -9 9 C-6.67126065 13.5281043 -3.8954154 15.86673109 0 19 C1.72784719 22.45569439 1.48497711 26.22121999 1 30 C-1.41335143 33.48595207 -4.05568963 34.66430011 -8 36 C-10.71875 36.23046875 -10.71875 36.23046875 -13.5 36.1875 C-14.4178125 36.18105469 -15.335625 36.17460938 -16.28125 36.16796875 C-18.93865687 36.00378988 -21.40626246 35.58734999 -24 35 C-24 31.7 -24 28.4 -24 25 C-20.04 25.33 -16.08 25.66 -12 26 C-12.33 24.68 -12.66 23.36 -13 22 C-13.5775 21.71125 -14.155 21.4225 -14.75 21.125 C-19.03754184 18.98122908 -21.50666661 15.48000018 -23 11 C-23 7.00765691 -22.42134689 5.20472383 -20 2 C-13.86940957 -1.63099347 -6.79888241 -1.61473457 0 0 Z " fill="#FFFFFF" transform="translate(148,73)"/>
<path d="M0 0 C3.96 0 7.92 0 12 0 C12 5.28 12 10.56 12 16 C12.99 15.67 13.98 15.34 15 15 C16.39699026 12.20601948 16.60871135 9.46076285 17.0625 6.375 C17.23910156 5.18648438 17.41570312 3.99796875 17.59765625 2.7734375 C17.73042969 1.85820313 17.86320312 0.94296875 18 0 C21.63 0 25.26 0 29 0 C29.09744014 8.72630608 29.16711095 17.33003296 28 26 C27.09636719 25.98839844 26.19273437 25.97679688 25.26171875 25.96484375 C23.49248047 25.95130859 23.49248047 25.95130859 21.6875 25.9375 C20.51574219 25.92589844 19.34398437 25.91429688 18.13671875 25.90234375 C14.96940805 25.85100102 14.96940805 25.85100102 12 27 C7.69736938 27.48709026 5.44967586 27.22892589 1.5625 25.25 C-0.52246141 23.29257613 -0.96839515 22.20634319 -1.40625 19.34765625 C-1.43867193 16.19867663 -1.27529449 13.13680625 -1 10 C-0.91878906 9.00871094 -0.83757812 8.01742187 -0.75390625 6.99609375 C-0.53795736 4.66052346 -0.27405494 2.32946697 0 0 Z " fill="#FFFFFF" transform="translate(174,82)"/>
<path d="M0 0 C2.86823643 0.67460921 4.47015321 1.41149155 7 3 C8.03791852 6.11375556 8.13351144 8.29836225 8.125 11.5625 C8.12886719 13.01849609 8.12886719 13.01849609 8.1328125 14.50390625 C7.96098275 19.02707163 7.49164466 23.50184334 7 28 C3.27124612 28.14560195 -0.45677434 28.23417043 -4.1875 28.3125 C-5.24259766 28.35439453 -6.29769531 28.39628906 -7.38476562 28.43945312 C-15.2274313 28.56315448 -15.2274313 28.56315448 -19.19921875 25.66796875 C-21 23 -21 23 -21.625 20 C-20.75140241 15.80673158 -19.44637813 14.55031982 -16 12 C-12.68965057 10.73650785 -9.44743393 9.87334993 -6 9 C-9.63 9 -13.26 9 -17 9 C-17.36280884 3.55786736 -17.36280884 3.55786736 -15.91015625 1.32421875 C-11.56166429 -1.69037997 -5.04873148 -0.42593348 0 0 Z M-7.625 19.5 C-8.07875 19.995 -8.5325 20.49 -9 21 C-7.35 21 -5.7 21 -4 21 C-4 20.01 -4 19.02 -4 18 C-6.12364481 17.77390663 -6.12364481 17.77390663 -7.625 19.5 Z " fill="#FFFFFF" transform="translate(216,40)"/>
<path d="M0 0 C2.98804576 -0.03284719 5.97475598 0.0036961 8.96264648 0.03955078 C7.67675413 5.37245405 5.17909832 8.27213455 1.15014648 11.78955078 C0.6287207 12.27037109 0.10729492 12.75119141 -0.42993164 13.24658203 C-5.37184637 17.67641322 -9.30953832 19.19175691 -15.84985352 19.66455078 C-16.82567383 19.73931641 -17.80149414 19.81408203 -18.80688477 19.89111328 C-19.9109668 19.96458984 -19.9109668 19.96458984 -21.03735352 20.03955078 C-21.47331913 26.36105222 -20.78223647 28.77330912 -17.03735352 34.03955078 C-16.78735352 36.91455078 -16.78735352 36.91455078 -17.03735352 39.03955078 C-19.01735352 39.03955078 -20.99735352 39.03955078 -23.03735352 39.03955078 C-24.66513681 32.89176207 -25.23925441 27.39942882 -25.03735352 21.03955078 C-27.34735352 21.03955078 -29.65735352 21.03955078 -32.03735352 21.03955078 C-30.05515535 12.55000471 -22.80326567 6.16260958 -16.03735352 1.03955078 C-10.94171714 -1.15514208 -5.45607065 0.07272209 0 0 Z " fill="#0B0642" transform="translate(59.037353515625,22.96044921875)"/>
<path d="M0 0 C-0.33 2.64 -0.66 5.28 -1 8 C0.98 8 2.96 8 5 8 C5 10.31 5 12.62 5 15 C3.02 15 1.04 15 -1 15 C-1 18.3 -1 21.6 -1 25 C0.98 25 2.96 25 5 25 C4.51451187 32.52506596 4.51451187 32.52506596 2.375 34.5 C-2.72703592 35.57411283 -7.37971139 35.58192599 -12 33 C-13.2062252 29.38132441 -13.10816918 26.07493749 -13.0625 22.3125 C-13.05798828 21.61060547 -13.05347656 20.90871094 -13.04882812 20.18554688 C-13.03706927 18.45699462 -13.01913454 16.72848635 -13 15 C-13.99 15 -14.98 15 -16 15 C-16 12.69 -16 10.38 -16 8 C-14.68 8 -13.36 8 -12 8 C-12 6.35 -12 4.7 -12 3 C-4.71428571 -0.42857143 -4.71428571 -0.42857143 0 0 Z " fill="#FFFFFF" transform="translate(167,74)"/>
<path d="M0 0 C-0.33 2.31 -0.66 4.62 -1 7 C0.65 7 2.3 7 4 7 C4 9.64 4 12.28 4 15 C2.35 15 0.7 15 -1 15 C-1 18.3 -1 21.6 -1 25 C0.65 25 2.3 25 4 25 C4.125 31.75 4.125 31.75 3 34 C0.87506859 34.02693575 -1.24995912 34.04636628 -3.375 34.0625 C-4.55835938 34.07410156 -5.74171875 34.08570313 -6.9609375 34.09765625 C-10 34 -10 34 -12 33 C-13.2062252 29.38132441 -13.10816918 26.07493749 -13.0625 22.3125 C-13.05798828 21.61060547 -13.05347656 20.90871094 -13.04882812 20.18554688 C-13.03706927 18.45699462 -13.01913454 16.72848635 -13 15 C-13.99 15 -14.98 15 -16 15 C-16 12.36 -16 9.72 -16 7 C-14.68 7 -13.36 7 -12 7 C-11.9175 6.21625 -11.835 5.4325 -11.75 4.625 C-11 2 -11 2 -9.375 0.6875 C-6.20198632 -0.23100396 -3.28355254 -0.12629048 0 0 Z " fill="#FFFFFF" transform="translate(263,34)"/>
<path d="M0 0 C0 3.63 0 7.26 0 11 C-1.98 11 -3.96 11 -6 11 C-6.13277344 12.14339844 -6.26554688 13.28679688 -6.40234375 14.46484375 C-6.5805031 15.9557562 -6.75890082 17.44664018 -6.9375 18.9375 C-7.06801758 20.06961914 -7.06801758 20.06961914 -7.20117188 21.22460938 C-7.88671875 26.88671875 -7.88671875 26.88671875 -9 28 C-10.85287502 28.07226502 -12.70833878 28.0838122 -14.5625 28.0625 C-15.57441406 28.05347656 -16.58632812 28.04445313 -17.62890625 28.03515625 C-18.41136719 28.02355469 -19.19382813 28.01195313 -20 28 C-19.8612922 24.06221489 -19.71281508 20.12485777 -19.5625 16.1875 C-19.52318359 15.06794922 -19.48386719 13.94839844 -19.44335938 12.79492188 C-19.40146484 11.72177734 -19.35957031 10.64863281 -19.31640625 9.54296875 C-19.27974854 8.55321045 -19.24309082 7.56345215 -19.20532227 6.54370117 C-19 4 -19 4 -18 1 C-15.75013201 0.83156069 -13.50009983 0.66531346 -11.25 0.5 C-9.37054688 0.36078125 -9.37054688 0.36078125 -7.453125 0.21875 C-4.97265229 0.06161598 -2.48544483 0 0 0 Z " fill="#FFFFFF" transform="translate(246,40)"/>
<path d="M0 0 C0.66 0 1.32 0 2 0 C4.19198795 2.78213855 4.99114247 4.95571236 5.6875 8.4375 C4.93411822 12.34138741 4.50749601 12.90722438 1.5625 15.3125 C-4.4844142 19.32593863 -10.8131123 20.36855834 -18 20 C-18.50367757 18.54293274 -19.00282556 17.08429904 -19.5 15.625 C-19.7784375 14.81289063 -20.056875 14.00078125 -20.34375 13.1640625 C-21 11 -21 11 -21 9 C-20.27554688 8.97421875 -19.55109375 8.9484375 -18.8046875 8.921875 C-11.33346814 8.48356346 -7.15150086 7.15150086 -1.75 1.75 C-1.1725 1.1725 -0.595 0.595 0 0 Z " fill="#0A0640" transform="translate(61,36)"/>
<path d="M0 0 C0.28617188 0.60199219 0.57234375 1.20398437 0.8671875 1.82421875 C2.02485163 4.19490832 2.02485163 4.19490832 4.125 6.8125 C6.44168771 10.7508691 6.9450753 12.51089232 6 17 C1.99415274 21.89379326 -3.00429435 25.14678189 -9 27 C-12.88039904 27.2630779 -16.28463298 27.18891745 -20 26 C-20.33 27.32 -20.66 28.64 -21 30 C-21.71614583 28.27473958 -22.43229167 26.54947917 -23.1484375 24.82421875 C-24.06806692 22.73466068 -24.06806692 22.73466068 -26 20 C-26.31254378 17.27716095 -26.13333428 14.75557514 -26 12 C-24.32199692 10.32199692 -22.11295151 10.75538996 -19.8125 10.625 C-11.02852382 9.85527013 -6.28724802 5.82448103 0 0 Z M-6 8.4375 C-10.03952111 12.11316719 -12.15204118 13.11702661 -17.625 13.5625 C-18.62789062 13.64628906 -19.63078125 13.73007812 -20.6640625 13.81640625 C-21.43492188 13.87699219 -22.20578125 13.93757813 -23 14 C-22.69217504 15.64671412 -22.37860766 17.29235576 -22.0625 18.9375 C-21.88847656 19.85402344 -21.71445312 20.77054688 -21.53515625 21.71484375 C-21.22285012 23.95289844 -21.22285012 23.95289844 -20 25 C-11.88627133 24.94384963 -5.99612532 23.3806704 0.9375 19.25 C3.31798368 17.07664352 3.31798368 17.07664352 3.5 13.5625 C2.98655247 9.90418631 2.27392519 7.88613582 0 5 C-2.91705856 5 -3.87841802 6.49921646 -6 8.4375 Z " fill="#EC6815" transform="translate(63,31)"/>
<path d="M0 0 C0.66 0 1.32 0 2 0 C0.91503216 3.85766342 -0.88918835 6.01036564 -3.625 8.8125 C-6.11044875 11.56776782 -7.52219656 13.36614357 -7.6875 17.125 C-6.93193516 21.38363817 -5.47586597 23.51831347 -3 27 C-2.75 29.875 -2.75 29.875 -3 32 C-4.98 32 -6.96 32 -9 32 C-12.53968619 18.50494639 -12.53968619 18.50494639 -11 12 C-8.41060665 8.19666571 -5.37358834 5.11173943 -2 2 C-1.34 1.34 -0.68 0.68 0 0 Z " fill="#5935E8" transform="translate(45,30)"/>
<path d="M0 0 C0.99 0.495 0.99 0.495 2 1 C4.04055005 1.07065617 6.08334257 1.08421976 8.125 1.0625 C9.22070312 1.05347656 10.31640625 1.04445312 11.4453125 1.03515625 C12.28835937 1.02355469 13.13140625 1.01195312 14 1 C14 1.33 14 1.66 14 2 C10.37 2 6.74 2 3 2 C3.99 5.3 4.98 8.6 6 12 C10.62 11.67 15.24 11.34 20 11 C19 14 19 14 17 15 C13.16063232 15.1421988 9.67983361 15.17754676 6 14 C5.67 15.32 5.34 16.64 5 18 C4.28385417 16.27473958 3.56770833 14.54947917 2.8515625 12.82421875 C1.93193308 10.73466068 1.93193308 10.73466068 0 8 C-0.25760279 5.30547479 -0.08900053 2.71451625 0 0 Z " fill="#D55B1C" transform="translate(37,43)"/>
<path d="M0 0 C3.20811709 3.10462944 4.77480555 4.72389809 5.5625 9.1875 C4.8308668 14.14634726 2.88650677 15.52336663 -0.859375 18.6171875 C-2.95690788 19.97216312 -4.55896527 20.57116957 -7 21 C-5.65396518 16.96189555 -3.34663277 15.52704924 0 13 C0.66 13 1.32 13 2 13 C1.855625 12.39671875 1.71125 11.7934375 1.5625 11.171875 C1.376875 10.37265625 1.19125 9.5734375 1 8.75 C0.814375 7.96109375 0.62875 7.1721875 0.4375 6.359375 C0 4 0 4 0 0 Z " fill="#E36E27" transform="translate(64,35)"/>
<path d="M0 0 C0.66 0 1.32 0 2 0 C0.93318589 3.79311683 -0.87972752 6.09932544 -3.5 8.9375 C-6.40897914 12.12467673 -8.03455319 14.70912528 -9 19 C-9.66 19 -10.32 19 -11 19 C-11.5585019 16.14543473 -11.73790111 14.77079425 -11 12 C-8.30983246 8.35332845 -5.22057592 5.17988273 -2 2 C-1.34 1.34 -0.68 0.68 0 0 Z " fill="#4E31EA" transform="translate(45,30)"/>
<path d="M0 0 C0.99 0.99 1.98 1.98 3 3 C-0.00313748 4.50156874 -2.79067522 4.09281204 -6.125 4.0625 C-7.40632813 4.05347656 -8.68765625 4.04445313 -10.0078125 4.03515625 C-11.48894531 4.01775391 -11.48894531 4.01775391 -13 4 C-13.33 4.66 -13.66 5.32 -14 6 C-14 4.68 -14 3.36 -14 2 C-13.24074219 1.93941406 -12.48148438 1.87882812 -11.69921875 1.81640625 C-10.70535156 1.73261719 -9.71148437 1.64882813 -8.6875 1.5625 C-7.70136719 1.48128906 -6.71523438 1.40007813 -5.69921875 1.31640625 C-2.90624401 1.08187441 -2.90624401 1.08187441 0 0 Z " fill="#E16011" transform="translate(52,40)"/>
<path d="M0 0 C0.8353125 0.37125 0.8353125 0.37125 1.6875 0.75 C-4.59821429 6.32142857 -4.59821429 6.32142857 -8.3125 6.75 C-6.99035643 2.78356928 -4.51439587 -0.4880428 0 0 Z " fill="#F57826" transform="translate(65.3125,49.25)"/>
<path d="M0 0 C-1 3 -1 3 -3 4 C-5.3329866 4.04022391 -7.66706666 4.04320247 -10 4 C-8 1 -8 1 -5.5625 0.3125 C-3 0 -3 0 0 0 Z " fill="#DF661D" transform="translate(57,54)"/>
</svg>
