<?xml version="1.0" encoding="UTF-8"?>
<svg version="1.1" xmlns="http://www.w3.org/2000/svg" width="479" height="142">
<path d="M0 0 C1.58658866 0.08835546 3.17682895 0.11474675 4.76586914 0.11010742 C5.7577272 0.11068649 6.74958527 0.11126556 7.77149963 0.11186218 C8.84850632 0.10975235 9.925513 0.10764252 11.03515625 0.10546875 C13.31185839 0.11893191 15.58855174 0.13395635 17.86523438 0.15039062 C21.45758368 0.17316887 25.04894591 0.18754716 28.64135742 0.17504883 C32.10667714 0.16619713 35.57003915 0.19522847 39.03515625 0.23046875 C40.62941185 0.21212227 40.62941185 0.21212227 42.25587463 0.19340515 C49.46221213 0.30953885 54.83106126 1.75026671 60 7 C64.23893121 12.83759048 64.58553595 17.47108299 64.54931641 24.56591797 C64.55953827 25.60586914 64.56976013 26.64582031 64.58029175 27.71728516 C64.6080083 31.14248918 64.60617616 34.56688491 64.6015625 37.9921875 C64.60934073 40.38201189 64.61801097 42.77183353 64.62753296 45.16165161 C64.64244123 50.16661549 64.64188687 55.17129716 64.63134766 60.17626953 C64.61976195 66.577679 64.65361717 72.97793043 64.700037 79.37914848 C64.72955797 84.31383981 64.73124888 89.24825374 64.72501755 94.18301773 C64.72604172 96.54244403 64.73647499 98.90188632 64.75664139 101.26122665 C64.78142757 104.56667195 64.76775773 107.86988117 64.74462891 111.17529297 C64.75991638 112.14181793 64.77520386 113.1083429 64.79095459 114.10415649 C64.68260198 121.14030911 62.78579133 125.79469763 58 131 C52.90043416 135.55978752 47.37405484 135.58421577 40.80126953 135.54931641 C39.80033264 135.55953827 38.79939575 135.56976013 37.76812744 135.58029175 C34.47277638 135.60799889 31.17826591 135.60617691 27.8828125 135.6015625 C25.58266898 135.60934128 23.28252832 135.61801163 20.98239136 135.62753296 C16.16573771 135.64243922 11.3493773 135.64188838 6.53271484 135.63134766 C0.3734243 135.6197624 -5.78466259 135.65361676 -11.9437542 135.700037 C-16.69315558 135.72956413 -21.44226884 135.73124806 -26.19174576 135.72501755 C-28.4618582 135.72604142 -30.7319873 135.73646906 -33.00201035 135.75664139 C-36.18295237 135.78143986 -39.36157296 135.76775107 -42.54248047 135.74462891 C-43.47160248 135.75991638 -44.40072449 135.77520386 -45.35800171 135.79095459 C-52.28405025 135.68020587 -56.86932357 133.68125223 -62 129 C-66.66203538 123.83345965 -66.58336481 118.10362441 -66.54931641 111.43408203 C-66.55953827 110.39413086 -66.56976013 109.35417969 -66.58029175 108.28271484 C-66.6080083 104.85751082 -66.60617616 101.43311509 -66.6015625 98.0078125 C-66.60934073 95.61798811 -66.61801097 93.22816647 -66.62753296 90.83834839 C-66.64244123 85.83338451 -66.64188687 80.82870284 -66.63134766 75.82373047 C-66.61976195 69.422321 -66.65361717 63.02206957 -66.700037 56.62085152 C-66.72955797 51.68616019 -66.73124888 46.75174626 -66.72501755 41.81698227 C-66.72604172 39.45755597 -66.73647499 37.09811368 -66.75664139 34.73877335 C-66.78142757 31.43332805 -66.76775773 28.13011883 -66.74462891 24.82470703 C-66.75991638 23.85818207 -66.77520386 22.8916571 -66.79095459 21.89584351 C-66.6826388 14.86208218 -64.63028518 10.30428655 -60 5 C-54.74985728 0.498338 -49.38415074 0.41202196 -42.68359375 0.42578125 C-41.7089064 0.41161667 -40.73421906 0.39745209 -39.72999573 0.38285828 C-36.63238371 0.34113338 -33.53535274 0.3257562 -30.4375 0.3125 C-27.33634802 0.28335519 -24.23533942 0.2487172 -21.1342926 0.21000671 C-19.20999143 0.18768654 -17.28560218 0.17176631 -15.3611908 0.16316223 C-10.75659273 0.12626586 -3.92948547 -1.96474273 0 0 Z " fill="#FE6601" transform="translate(75,4)"/>
<path d="M0 0 C1.06734375 -0.00257812 2.1346875 -0.00515625 3.234375 -0.0078125 C4.91660156 0.00378906 4.91660156 0.00378906 6.6328125 0.015625 C7.715625 0.00789063 8.7984375 0.00015625 9.9140625 -0.0078125 C18.32975303 0.01227268 26.72582723 0.58829658 34.7578125 3.265625 C35.71239899 11.61825676 35.86820584 19.86346535 35.7578125 28.265625 C31.4100358 27.7825387 27.21297643 27.16590998 22.9453125 26.203125 C16.21235095 24.83370909 9.75012115 24.33697749 3.1328125 26.390625 C0.54885756 28.11020727 0.54885756 28.11020727 -0.3671875 31.078125 C-0.17834637 35.89357374 2.15850755 38.76530615 5.56835938 41.96411133 C7.70450439 43.77378793 9.87531993 45.5278435 12.0703125 47.265625 C13.54609785 48.45247257 15.02136377 49.63996633 16.49609375 50.828125 C17.2120874 51.4044165 17.92808105 51.98070801 18.66577148 52.57446289 C28.10154007 60.20214045 28.10154007 60.20214045 31.5703125 65.328125 C32.41529297 66.55208984 32.41529297 66.55208984 33.27734375 67.80078125 C37.35064312 74.58244854 37.99275151 81.23713082 36.10546875 88.921875 C32.63603862 98.57076222 26.76237402 104.17736616 17.89453125 109.0390625 C9.88698045 112.17028411 1.77850805 112.62322273 -6.7421875 112.578125 C-8.29691772 112.57510376 -8.29691772 112.57510376 -9.88305664 112.57202148 C-34.24862642 112.25918608 -34.24862642 112.25918608 -38.2421875 108.265625 C-38.47100288 106.26945995 -38.63750438 104.26608307 -38.77734375 102.26171875 C-38.90786133 100.43930664 -38.90786133 100.43930664 -39.04101562 98.58007812 C-39.12802734 97.30068359 -39.21503906 96.02128906 -39.3046875 94.703125 C-39.39556641 93.41986328 -39.48644531 92.13660156 -39.58007812 90.81445312 C-39.80487696 87.63177485 -40.02538568 84.44885642 -40.2421875 81.265625 C-37.25696973 82.0026818 -34.31220704 82.81778423 -31.3671875 83.703125 C-30.54476562 83.94933594 -29.72234375 84.19554688 -28.875 84.44921875 C-27.01706803 85.02534306 -25.17773326 85.66317489 -23.35546875 86.34375 C-16.74202977 88.30205816 -8.37029717 88.55402619 -1.9296875 85.828125 C0.5952141 84.51352092 0.5952141 84.51352092 1.7578125 83.265625 C1.52693356 77.26277248 0.06437928 75.26165023 -4.2421875 71.265625 C-4.76780273 70.76933594 -5.29341797 70.27304688 -5.83496094 69.76171875 C-7.56610597 68.12837282 -9.30893087 66.50833739 -11.0546875 64.890625 C-11.6734375 64.31481689 -12.2921875 63.73900879 -12.9296875 63.14575195 C-16.14012004 60.16878247 -19.38487646 57.26495417 -22.7421875 54.453125 C-28.01674756 49.89164924 -31.81875856 44.81114802 -34.2421875 38.265625 C-33.00855469 38.11867188 -33.00855469 38.11867188 -31.75 37.96875 C-20.78296795 36.49972492 -11.54085371 33.89307556 -3.2421875 26.265625 C-0.66527134 22.40025076 -0.65659325 20.87717972 -1.2421875 16.265625 C-2.6595423 13.58748366 -4.22563861 11.10245033 -5.9296875 8.59765625 C-7.2421875 6.265625 -7.2421875 6.265625 -7.2421875 2.265625 C-4.65485414 -0.32170836 -3.59688297 0.00844764 0 0 Z " fill="#FFFCFB" transform="translate(76.2421875,16.734375)"/>
<path d="M0 0 C3.1875 1.5 3.1875 1.5 5 3 C5.598125 2.505 6.19625 2.01 6.8125 1.5 C11.49929275 -0.70554953 15.90353305 -0.71166881 21 0 C24.00197464 1.80118478 25.45166366 2.90332732 27 6 C27.01639513 8.17999956 26.96414776 10.36066842 26.87890625 12.5390625 C26.83056641 13.84101562 26.78222656 15.14296875 26.73242188 16.484375 C26.67589606 17.86458804 26.61925392 19.24479632 26.5625 20.625 C26.50927707 22.01300219 26.45653668 23.40102297 26.40429688 24.7890625 C26.27428944 28.1928934 26.13775169 31.59647371 26 35 C21.38 35 16.76 35 12 35 C12.01160156 33.50726563 12.02320313 32.01453125 12.03515625 30.4765625 C12.04453375 28.52604291 12.05363399 26.57552198 12.0625 24.625 C12.07506836 23.14773437 12.07506836 23.14773437 12.08789062 21.640625 C12.09111328 20.69960938 12.09433594 19.75859375 12.09765625 18.7890625 C12.10289307 17.91975098 12.10812988 17.05043945 12.11352539 16.15478516 C12.14122351 13.94950006 12.14122351 13.94950006 11 12 C9.68 12 8.36 12 7 12 C5.85149303 16.73879768 5.67098443 21.46291362 5.4375 26.3125 C5.37272461 27.56643555 5.37272461 27.56643555 5.30664062 28.84570312 C5.20114693 30.89696935 5.10012685 32.9484648 5 35 C0.38 35 -4.24 35 -9 35 C-8.98839844 33.50726563 -8.97679687 32.01453125 -8.96484375 30.4765625 C-8.95546625 28.52604291 -8.94636601 26.57552198 -8.9375 24.625 C-8.92912109 23.64015625 -8.92074219 22.6553125 -8.91210938 21.640625 C-8.90888672 20.69960938 -8.90566406 19.75859375 -8.90234375 18.7890625 C-8.89710693 17.91975098 -8.89187012 17.05043945 -8.88647461 16.15478516 C-8.85877649 13.94950006 -8.85877649 13.94950006 -10 12 C-11.32 12 -12.64 12 -14 12 C-15.14850697 16.73879768 -15.32901557 21.46291362 -15.5625 26.3125 C-15.60568359 27.14845703 -15.64886719 27.98441406 -15.69335938 28.84570312 C-15.79885307 30.89696935 -15.89987315 32.9484648 -16 35 C-20.62 35 -25.24 35 -30 35 C-30.12818318 23.62018175 -29.79568202 12.35267742 -29 1 C-23.66666667 1 -18.33333333 1 -13 1 C-9.08729537 -0.95635231 -4.2758022 -0.3696659 0 0 Z " fill="#010242" transform="translate(219,32)"/>
<path d="M0 0 C4.62 0 9.24 0 14 0 C14.11461189 9.99272408 13.67106277 19.85127126 13 29.8125 C12.90326196 31.29489687 12.80690566 32.77731871 12.7109375 34.25976562 C12.47834172 37.84014121 12.24064034 41.420155 12 45 C6.66666667 45 1.33333333 45 -4 45 C-4.99 45.495 -4.99 45.495 -6 46 C-11.28305214 46.52657873 -15.66862857 46.64191122 -20.5 44.3125 C-24.04728767 41.03125891 -25.81802808 38.52535283 -26.3984375 33.66015625 C-26.39070313 32.47292969 -26.38296875 31.28570312 -26.375 30.0625 C-26.38273437 28.87785156 -26.39046875 27.69320312 -26.3984375 26.47265625 C-25.77129648 21.00669188 -23.76230393 17.15529552 -19.5 13.6875 C-18.9121875 13.19636719 -18.324375 12.70523438 -17.71875 12.19921875 C-14.05343903 9.64183132 -10.63045386 9.89474798 -6.3125 9.9375 C-4.54326172 9.95103516 -4.54326172 9.95103516 -2.73828125 9.96484375 C-1.83464844 9.97644531 -0.93101562 9.98804687 0 10 C0 6.7 0 3.4 0 0 Z M-11 22 C-13.01536127 25.15447851 -13.00395761 26.92216698 -12.8125 30.6875 C-12.32982441 34.2683066 -12.32982441 34.2683066 -9 36 C-6.44539786 36.07272562 -6.44539786 36.07272562 -4 35 C0.06530764 30.64431324 -0.28707947 24.65249584 0 19 C-4.50653092 18.85462803 -7.14815342 19.51769887 -11 22 Z " fill="#010242" transform="translate(289,77)"/>
<path d="M0 0 C4.62 0 9.24 0 14 0 C16.475 8.91 16.475 8.91 19 18 C21.31 12.06 23.62 6.12 26 0 C30.62 0 35.24 0 40 0 C35.73509711 10.87669368 31.35055273 21.69800411 26.75 32.4375 C26.33830566 33.41340088 25.92661133 34.38930176 25.50244141 35.39477539 C20.70324232 46.49668937 20.70324232 46.49668937 15.66796875 49.296875 C12.46855024 50.14005997 9.61988474 50.26508499 6.3125 50.25 C5.17425781 50.25515625 4.03601563 50.2603125 2.86328125 50.265625 C0 50 0 50 -2 48 C-2.4140625 45.8359375 -2.4140625 45.8359375 -2.625 43.375 C-2.69976562 42.55773437 -2.77453125 41.74046875 -2.8515625 40.8984375 C-2.90054687 40.27195313 -2.94953125 39.64546875 -3 39 C-2.39671875 39.04640625 -1.7934375 39.0928125 -1.171875 39.140625 C-0.37265625 39.17671875 0.4265625 39.2128125 1.25 39.25 C2.03890625 39.29640625 2.8278125 39.3428125 3.640625 39.390625 C6.79673722 38.86808986 7.85737782 37.28493657 10 35 C9.76812988 34.25951416 9.53625977 33.51902832 9.29736328 32.75610352 C8.23611165 29.35940882 7.18051936 25.96098015 6.125 22.5625 C5.76019531 21.39783203 5.39539063 20.23316406 5.01953125 19.03320312 C3.06453281 12.72388999 1.31552809 6.47378298 0 0 Z " fill="#010242" transform="translate(306,88)"/>
<path d="M0 0 C-0.75457612 6.84893713 -5.78342609 10.52010018 -10.4375 15.1875 C-11.30310547 16.10208984 -12.16871094 17.01667969 -13.06054688 17.95898438 C-18.74400949 23.69322998 -22.89582225 26.49277216 -31 27 C-32.11632812 27.13664062 -33.23265625 27.27328125 -34.3828125 27.4140625 C-35.74019531 27.51847656 -35.74019531 27.51847656 -37.125 27.625 C-38.05570313 27.69976562 -38.98640625 27.77453125 -39.9453125 27.8515625 C-40.62335937 27.90054688 -41.30140625 27.94953125 -42 28 C-43.06463439 32.34725708 -43.28698971 34.40476209 -41.3125 38.5 C-40.55648216 39.67632146 -39.78509518 40.84288259 -39 42 C-34.93002747 48.31776782 -34.93002747 48.31776782 -35.25 51.4375 C-35.4975 51.953125 -35.745 52.46875 -36 53 C-38.64 53.33 -41.28 53.66 -44 54 C-44.07347656 52.80503906 -44.07347656 52.80503906 -44.1484375 51.5859375 C-44.54016155 46.03426222 -45.12053198 41.26251047 -47 36 C-47.31034483 30.62068966 -47.31034483 30.62068966 -46 28 C-49.3 28 -52.6 28 -56 28 C-55.51149406 23.50683532 -54.04481099 21.55868541 -50.8515625 18.42578125 C-50.01109375 17.59369141 -49.170625 16.76160156 -48.3046875 15.90429688 C-46.97824219 14.62135742 -46.97824219 14.62135742 -45.625 13.3125 C-44.7484375 12.44560547 -43.871875 11.57871094 -42.96875 10.68554688 C-33.99355245 1.86817008 -33.99355245 1.86817008 -28.28125 1.3671875 C-27.34796875 1.28339844 -26.4146875 1.19960937 -25.453125 1.11328125 C-23.99132813 0.99533203 -23.99132813 0.99533203 -22.5 0.875 C-21.55640625 0.78863281 -20.6128125 0.70226562 -19.640625 0.61328125 C-13.08084406 0.04870994 -6.58198051 -0.10113775 0 0 Z " fill="#050443" transform="translate(75,7)"/>
<path d="M0 0 C4.62 0 9.24 0 14 0 C14 7.26 14 14.52 14 22 C15.32 22.33 16.64 22.66 18 23 C20.39260712 21.74055542 20.39260712 21.74055542 22 19 C22.76572158 15.77324329 23.01582493 12.55284426 23.25 9.25 C23.36601562 7.91775391 23.36601562 7.91775391 23.484375 6.55859375 C23.67232123 4.3737188 23.838317 2.1869753 24 0 C28.62 0 33.24 0 38 0 C37.34 11.22 36.68 22.44 36 34 C31.71 34 27.42 34 23 34 C22.67 33.34 22.34 32.68 22 32 C21.29875 32.48597656 20.5975 32.97195312 19.875 33.47265625 C15.10531131 36.00655337 10.27035302 35.67792923 5 35 C1.92634214 33.19196596 0.56980268 32.13960536 -1 29 C-1.10045742 26.55061179 -1.14090302 24.13656456 -1.125 21.6875 C-1.12306641 20.97851562 -1.12113281 20.26953125 -1.11914062 19.5390625 C-1.06645054 12.99378346 -0.59265022 6.51915238 0 0 Z " fill="#010242" transform="translate(221,88)"/>
<path d="M0 0 C1.23363281 0.02707031 1.23363281 0.02707031 2.4921875 0.0546875 C4.49530804 0.1012717 6.49781821 0.17299301 8.5 0.25 C10.90201504 4.44879794 10.65864149 7.49075541 10.5 12.25 C9.23542969 12.12431641 9.23542969 12.12431641 7.9453125 11.99609375 C6.30175781 11.84333984 6.30175781 11.84333984 4.625 11.6875 C3.53445312 11.58308594 2.44390625 11.47867188 1.3203125 11.37109375 C-1.45152023 11.02360596 -1.45152023 11.02360596 -3.5 12.25 C-3.20777609 15.61641941 -2.81600332 16.9509861 -0.3203125 19.3125 C0.56914062 19.951875 1.45859375 20.59125 2.375 21.25 C6.07543549 23.92553353 8.49536352 26.10448961 10.5 30.25 C11.02774616 34.99971544 10.97536881 37.24221812 8.9375 41.5625 C5.64023598 45.19794494 2.13190897 46.94812083 -2.70727539 47.50317383 C-5.06223978 47.57963856 -7.3947324 47.56177751 -9.75 47.5 C-10.55179688 47.49484375 -11.35359375 47.4896875 -12.1796875 47.484375 C-15.5186613 47.43970645 -18.31452367 47.31182544 -21.5 46.25 C-21.83 42.29 -22.16 38.33 -22.5 34.25 C-20.2415625 34.7759375 -20.2415625 34.7759375 -17.9375 35.3125 C-13.39401347 36.2367085 -10.0074871 36.2298885 -5.5 35.25 C-5.92594346 30.83844278 -8.60926476 29.15894603 -11.875 26.4375 C-16.16220931 22.70984968 -19.19758802 19.89378523 -20.5 14.25 C-20.2752174 10.42869574 -19.45083276 7.52472845 -17.5 4.25 C-12.15913426 0.08412472 -6.52663308 -0.27637208 0 0 Z " fill="#010242" transform="translate(174.5,75.75)"/>
<path d="M0 0 C1.23363281 0.02707031 1.23363281 0.02707031 2.4921875 0.0546875 C4.49530804 0.1012717 6.49781821 0.17299301 8.5 0.25 C10.90201504 4.44879794 10.65864149 7.49075541 10.5 12.25 C9.23542969 12.12431641 9.23542969 12.12431641 7.9453125 11.99609375 C6.30175781 11.84333984 6.30175781 11.84333984 4.625 11.6875 C3.53445312 11.58308594 2.44390625 11.47867188 1.3203125 11.37109375 C-1.45152023 11.02360596 -1.45152023 11.02360596 -3.5 12.25 C-3.20777609 15.61641941 -2.81600332 16.9509861 -0.3203125 19.3125 C0.56914062 19.951875 1.45859375 20.59125 2.375 21.25 C6.07543549 23.92553353 8.49536352 26.10448961 10.5 30.25 C11.02774616 34.99971544 10.97536881 37.24221812 8.9375 41.5625 C5.64023598 45.19794494 2.13190897 46.94812083 -2.70727539 47.50317383 C-5.06223978 47.57963856 -7.3947324 47.56177751 -9.75 47.5 C-10.55179688 47.49484375 -11.35359375 47.4896875 -12.1796875 47.484375 C-15.5186613 47.43970645 -18.31452367 47.31182544 -21.5 46.25 C-21.83 42.29 -22.16 38.33 -22.5 34.25 C-20.2415625 34.7759375 -20.2415625 34.7759375 -17.9375 35.3125 C-13.39401347 36.2367085 -10.0074871 36.2298885 -5.5 35.25 C-5.92594346 30.83844278 -8.60926476 29.15894603 -11.875 26.4375 C-16.16220931 22.70984968 -19.19758802 19.89378523 -20.5 14.25 C-20.2752174 10.42869574 -19.45083276 7.52472845 -17.5 4.25 C-12.15913426 0.08412472 -6.52663308 -0.27637208 0 0 Z " fill="#010242" transform="translate(172.5,20.75)"/>
<path d="M0 0 C0.91072266 -0.00386719 1.82144531 -0.00773437 2.75976562 -0.01171875 C3.70916016 -0.00011719 4.65855469 0.01148437 5.63671875 0.0234375 C7.0434082 0.00603516 7.0434082 0.00603516 8.47851562 -0.01171875 C13.78187935 0.01070562 17.83974105 0.2471829 22.32421875 3.3984375 C24.68082755 6.86834595 24.48750035 9.8062422 24.30078125 13.9140625 C24.24921875 15.16445313 24.19765625 16.41484375 24.14453125 17.703125 C24.08007812 19.00507812 24.015625 20.30703125 23.94921875 21.6484375 C23.86414063 23.62457031 23.86414063 23.62457031 23.77734375 25.640625 C23.6359074 28.893661 23.48131502 32.14612014 23.32421875 35.3984375 C18.70421875 35.3984375 14.08421875 35.3984375 9.32421875 35.3984375 C9.19921875 24.7734375 9.19921875 24.7734375 10.32421875 21.3984375 C7.35421875 22.7184375 4.38421875 24.0384375 1.32421875 25.3984375 C1.65421875 26.3884375 1.98421875 27.3784375 2.32421875 28.3984375 C4.30421875 28.3984375 6.28421875 28.3984375 8.32421875 28.3984375 C7.66421875 31.0384375 7.00421875 33.6784375 6.32421875 36.3984375 C4.42911176 36.48004498 2.53297371 36.53790209 0.63671875 36.5859375 C-0.94689453 36.63814453 -0.94689453 36.63814453 -2.5625 36.69140625 C-6.09414724 36.35906805 -7.85833554 35.51522246 -10.67578125 33.3984375 C-13.15491561 29.67973596 -13.30934732 26.70668677 -12.67578125 22.3984375 C-10.59057456 18.02943301 -7.70217913 16.81724438 -3.36328125 15.1484375 C0.87940561 13.73800004 4.8767625 12.79376694 9.32421875 12.3984375 C9.32421875 11.0784375 9.32421875 9.7584375 9.32421875 8.3984375 C0.78770431 9.10427272 0.78770431 9.10427272 -7.67578125 10.3984375 C-8.0429411 3.91194676 -8.0429411 3.91194676 -6.45629883 1.69287109 C-4.17154901 0.03186142 -2.8093725 0.01151045 0 0 Z " fill="#010242" transform="translate(262.67578125,31.6015625)"/>
<path d="M0 0 C-0.33 3.3 -0.66 6.6 -1 10 C1.64 10 4.28 10 7 10 C7 12.97 7 15.94 7 19 C4.36 19 1.72 19 -1 19 C-1 23.95 -1 28.9 -1 34 C1.64 34 4.28 34 7 34 C6.69217504 35.64671412 6.37860766 37.29235576 6.0625 38.9375 C5.88847656 39.85402344 5.71445313 40.77054688 5.53515625 41.71484375 C5 44 5 44 4 45 C1.73181338 45.12617338 -0.54083685 45.17580246 -2.8125 45.1875 C-4.05644531 45.20167969 -5.30039063 45.21585938 -6.58203125 45.23046875 C-9.75240918 45.0166947 -11.47855518 44.88203537 -14 43 C-16.82679937 35.05803985 -15.80361288 27.24246181 -15 19 C-16.65 19 -18.3 19 -20 19 C-19.505 14.545 -19.505 14.545 -19 10 C-17.35 10 -15.7 10 -14 10 C-14.04125 9.05125 -14.0825 8.1025 -14.125 7.125 C-14 4 -14 4 -12 2 C-10.1953125 1.3671875 -10.1953125 1.3671875 -8.125 0.875 C-7.44695312 0.70742187 -6.76890625 0.53984375 -6.0703125 0.3671875 C-4 0 -4 0 0 0 Z " fill="#010242" transform="translate(209,78)"/>
<path d="M0 0 C-0.33 3.3 -0.66 6.6 -1 10 C1.64 10 4.28 10 7 10 C7 12.97 7 15.94 7 19 C4.36 19 1.72 19 -1 19 C-1 23.95 -1 28.9 -1 34 C1.64 34 4.28 34 7 34 C6.69217504 35.64671412 6.37860766 37.29235576 6.0625 38.9375 C5.88847656 39.85402344 5.71445312 40.77054688 5.53515625 41.71484375 C5 44 5 44 4 45 C1.73181338 45.12617338 -0.54083685 45.17580246 -2.8125 45.1875 C-4.05644531 45.20167969 -5.30039062 45.21585938 -6.58203125 45.23046875 C-9.75240918 45.0166947 -11.47855518 44.88203537 -14 43 C-16.82679937 35.05803985 -15.80361288 27.24246181 -15 19 C-16.65 19 -18.3 19 -20 19 C-19.505 14.545 -19.505 14.545 -19 10 C-17.35 10 -15.7 10 -14 10 C-14.04125 9.05125 -14.0825 8.1025 -14.125 7.125 C-14 4 -14 4 -12 2 C-10.1953125 1.3671875 -10.1953125 1.3671875 -8.125 0.875 C-7.44695312 0.70742188 -6.76890625 0.53984375 -6.0703125 0.3671875 C-4 0 -4 0 0 0 Z " fill="#010242" transform="translate(340,23)"/>
<path d="M0 0 C0.66 0 1.32 0 2 0 C5.36475086 4.23362323 7.86047157 8.3256588 8.3125 13.75 C5.63058841 20.39092393 -0.78014588 23.94463306 -7 27 C-12.33829129 28.92923874 -18.36601251 30.09453745 -24 29 C-25.875 27 -25.875 27 -27 24 C-27.41185547 23.00613281 -27.41185547 23.00613281 -27.83203125 21.9921875 C-29.12216053 18.7992648 -30 16.48153433 -30 13 C-28.57107422 12.92652344 -28.57107422 12.92652344 -27.11328125 12.8515625 C-25.85902344 12.77679688 -24.60476562 12.70203125 -23.3125 12.625 C-21.45044922 12.52058594 -21.45044922 12.52058594 -19.55078125 12.4140625 C-13.39697532 11.69645697 -10.25322939 9.63736813 -5.75 5.4375 C-4.87859375 4.63183594 -4.0071875 3.82617188 -3.109375 2.99609375 C-1.54084514 1.51227646 -1.54084514 1.51227646 0 0 Z " fill="#050441" transform="translate(66,24)"/>
<path d="M0 0 C0 3.96 0 7.92 0 12 C-4.455 12.495 -4.455 12.495 -9 13 C-10.46008973 20.32879991 -11.41939595 27.54891468 -12 35 C-16.62 35 -21.24 35 -26 35 C-25.34 23.78 -24.68 12.56 -24 1 C-19 1 -14 1 -9 1 C-6.04335481 -0.4783226 -3.25770263 -0.06032783 0 0 Z " fill="#010242" transform="translate(318,32)"/>
<path d="M0 0 C0 0.66 0 1.32 0 2 C0.60328125 2.24363281 1.2065625 2.48726562 1.828125 2.73828125 C5.73530922 5.0081023 7.29519098 8.94188599 9 13 C9.67424479 16.55510889 9.77753595 18.57347234 8.03125 21.77734375 C2.73195429 28.81739648 -6.45509284 33.44638052 -15 35 C-18.34145977 35.13799539 -21.65842666 35.12102278 -25 35 C-24.67 34.34 -24.34 33.68 -24 33 C-21.53768827 32.53569548 -19.10388024 32.15876253 -16.625 31.8125 C-8.18979087 30.44638644 -1.03220682 27.51431851 4.796875 20.98828125 C6.29843078 18.90592526 6.29843078 18.90592526 5.9375 15.625 C4.92564615 11.71249846 3.34610837 9.25427935 1 6 C1 5.34 1 4.68 1 4 C0.23816406 4.67095703 0.23816406 4.67095703 -0.5390625 5.35546875 C-1.96870726 6.61109308 -3.40114547 7.8635419 -4.8359375 9.11328125 C-6.13905352 10.24939143 -7.43747972 11.39096038 -8.7265625 12.54296875 C-13.91927194 17.08326085 -17.44530366 17.12550645 -24.25 17.0625 C-25.51328125 17.05347656 -26.7765625 17.04445313 -28.078125 17.03515625 C-29.04234375 17.02355469 -30.0065625 17.01195313 -31 17 C-30.71125 17.75925781 -30.4225 18.51851562 -30.125 19.30078125 C-29.75375 20.29464844 -29.3825 21.28851563 -29 22.3125 C-28.62875 23.29863281 -28.2575 24.28476562 -27.875 25.30078125 C-27 28 -27 28 -27 31 C-27.99 31.33 -28.98 31.66 -30 32 C-34.15724896 26.8833859 -35.88928243 23.64305415 -36 17 C-34 14 -34 14 -32.15576172 13.58691406 C-31.05385498 13.55162598 -31.05385498 13.55162598 -29.9296875 13.515625 C-28.71369873 13.44927856 -28.71369873 13.44927856 -27.47314453 13.3815918 C-26.61575684 13.3381665 -25.75836914 13.29474121 -24.875 13.25 C-17.98514269 12.72528425 -13.27239941 12.17003916 -8.4375 6.8203125 C-7.963125 6.21960938 -7.48875 5.61890625 -7 5 C-2.2238806 0 -2.2238806 0 0 0 Z " fill="#ED6510" transform="translate(67,20)"/>
<path d="M0 0 C0.66 0.33 1.32 0.66 2 1 C0.50215434 4.56744962 -1.56558216 6.68508763 -4.375 9.3125 C-11.10594215 15.92957933 -11.10594215 15.92957933 -13.125 24.9375 C-12.35474019 29.17392898 -10.05764858 31.84468857 -7.3671875 35.1015625 C-5.54463037 37.63231326 -5.15404461 39.91910785 -5 43 C-10.625 45 -10.625 45 -14 45 C-14.04898437 44.20335937 -14.09796875 43.40671875 -14.1484375 42.5859375 C-14.54779935 36.08681227 -14.54779935 36.08681227 -16.125 29.8125 C-17.37979124 25.77924244 -17.17468025 22.05062154 -16 18 C-13.21188677 13.16988834 -9.71809391 9.46968429 -5.75 5.625 C-5.19570313 5.07972656 -4.64140625 4.53445312 -4.0703125 3.97265625 C-2.71811269 2.64377023 -1.3596965 1.32121452 0 0 Z " fill="#5434F3" transform="translate(45,16)"/>
<path d="M0 0 C0.66 0 1.32 0 2 0 C8.25306695 9.84858044 8.25306695 9.84858044 7 16 C2.79044053 23.72318371 -5.70859296 27.34366746 -13.5625 30.375 C-18.07379271 31.19523504 -22.42930436 31.16553827 -27 31 C-26.67 30.34 -26.34 29.68 -26 29 C-23.53768827 28.53569548 -21.10388024 28.15876253 -18.625 27.8125 C-10.19089678 26.44656554 -3.02600715 23.51612976 2.796875 16.984375 C4.2935753 14.91452578 4.2935753 14.91452578 3.9375 11.6875 C2.86614055 7.47348617 1.31395611 4.65754352 -1 1 C-0.67 0.67 -0.34 0.34 0 0 Z " fill="#F1701D" transform="translate(69,24)"/>
<path d="M0 0 C0 0.99 0 1.98 0 3 C-7.1963309 6.06459719 -13.16465389 7.61187085 -21 7 C-20.67 6.34 -20.34 5.68 -20 5 C-17.38688621 4.40946581 -14.82839932 3.92051065 -12.1875 3.5 C-5.83642724 2.55499834 -5.83642724 2.55499834 0 0 Z " fill="#F56C13" transform="translate(63,48)"/>
<path d="M0 0 C0.99 0.33 1.98 0.66 3 1 C1.73427767 2.15147661 0.46222094 3.29599314 -0.8125 4.4375 C-1.52019531 5.07558594 -2.22789063 5.71367188 -2.95703125 6.37109375 C-5 8 -5 8 -8 9 C-8 8.01 -8 7.02 -8 6 C-6.35546875 4.359375 -6.35546875 4.359375 -4.1875 2.75 C-3.47980469 2.20859375 -2.77210937 1.6671875 -2.04296875 1.109375 C-1.36878906 0.74328125 -0.69460937 0.3771875 0 0 Z " fill="#F97721" transform="translate(72,41)"/>
</svg>
