<?xml version="1.0" encoding="UTF-8"?>
<svg version="1.1" xmlns="http://www.w3.org/2000/svg" width="892" height="125">
<path d="M0 0 C0.81001465 -0.00715027 1.6200293 -0.01430054 2.45458984 -0.02166748 C27.08149706 -0.18751504 51.38182933 0.94736466 75.8984375 3.203125 C76.54575081 3.26251503 77.19306412 3.32190506 77.85999298 3.38309479 C166.37174596 11.51319922 254.47771793 23.00255822 386.40063477 40.63842773 C387.20813581 40.74726508 388.01563684 40.85610243 388.84760761 40.96823788 C392.73255137 41.49191487 396.61743198 42.01605297 400.50221252 42.54093933 C407.89574867 43.53867744 415.29146049 44.51519022 422.69226074 45.45782471 C430.99823352 46.51666426 439.25479393 47.71346742 447.50646973 49.13531494 C454.43316929 50.32083796 461.38324264 51.23304161 468.35482788 52.10919189 C485.79472365 54.30906768 503.19211268 56.79251433 520.5859375 59.328125 C521.75458344 59.49806976 522.92322937 59.66801453 524.12728882 59.84310913 C535.85016922 61.54958024 547.5653191 63.28910431 559.26290894 65.16142273 C566.50574849 66.31442289 573.76564461 67.33024734 581.02993774 68.33743286 C591.46276659 69.78775475 601.86448253 71.27691202 612.2109375 73.265625 C620.42898734 74.84187134 628.66128158 76.01598603 636.9609375 77.078125 C649.00187947 78.61905078 660.98110924 80.43244167 672.9609375 82.390625 C673.77337921 82.5231366 674.58582092 82.65564819 675.42288208 82.79217529 C677.73925939 83.17081191 680.05528562 83.55149241 682.37109375 83.93359375 C683.05937256 84.04697586 683.74765137 84.16035797 684.45678711 84.2771759 C687.25674567 84.74314314 690.03411581 85.23307196 692.80639648 85.8449707 C693.49677002 85.96316162 694.18714355 86.08135254 694.8984375 86.203125 C695.2284375 85.873125 695.5584375 85.543125 695.8984375 85.203125 C693.94949585 85.01568726 693.94949585 85.01568726 691.96118164 84.82446289 C687.17943935 84.2902079 682.57637843 83.35165151 677.89453125 82.26171875 C676.0629377 81.84659131 674.23122493 81.43198967 672.39941406 81.01782227 C671.41976685 80.79490509 670.44011963 80.57198792 669.43078613 80.34231567 C645.57947097 74.93454056 621.63165689 70.04599732 597.6484375 65.265625 C596.7950391 65.09539448 595.9416407 64.92516396 595.06238174 64.74977493 C576.34934767 61.01779963 557.62842312 57.32832685 538.890625 53.72265625 C538.18440506 53.58663813 537.47818512 53.45062 536.75056458 53.31048012 C529.55659373 51.92505588 522.36141201 50.54649872 515.16308594 49.18383789 C503.59090183 46.98273761 492.04722204 44.66922145 480.546875 42.1171875 C478.92140244 41.76930679 478.92140244 41.76930679 477.26309204 41.41439819 C471.68997411 40.14575842 467.27679072 38.96424123 462.8984375 35.203125 C462.5684375 34.213125 462.2384375 33.223125 461.8984375 32.203125 C468.37477816 29.00774987 474.21542795 27.88046346 481.34375 27.9921875 C482.13567749 27.9995694 482.92760498 28.00695129 483.74353027 28.01455688 C491.3371568 28.13039799 498.85250821 28.73632751 506.3984375 29.578125 C507.54357819 29.70199585 507.54357819 29.70199585 508.71185303 29.82836914 C555.54202407 34.92657582 602.18947081 42.05970524 648.81112671 48.75720215 C677.75031882 52.91449411 706.69961878 56.99501527 735.65864563 61.01189804 C738.82372538 61.45142912 741.9886111 61.89233239 745.15344238 62.33364868 C750.11212408 63.02494819 755.07127113 63.71280356 760.03081703 64.39787483 C761.85992293 64.65103109 763.68887443 64.90530574 765.51766014 65.16076469 C768.02298031 65.51044463 770.52885061 65.85587451 773.03491211 66.20019531 C773.76414257 66.30293164 774.49337303 66.40566797 775.24470139 66.51151752 C778.82265551 66.99837809 782.28667843 67.31584242 785.8984375 67.203125 C763.69808115 60.68824927 741.32627795 54.97505452 718.85839844 49.45825195 C717.74397873 49.18342484 716.62955902 48.90859772 715.48136902 48.6254425 C713.36246052 48.10324804 711.2427841 47.5841575 709.12226868 47.06852722 C708.18352402 46.83708511 707.24477936 46.60564301 706.27758789 46.3671875 C705.45255264 46.16561035 704.6275174 45.9640332 703.77748108 45.75634766 C701.8984375 45.203125 701.8984375 45.203125 700.8984375 44.203125 C698.86726189 43.99104315 696.83595648 43.7801657 694.80419922 43.57373047 C689.46453935 42.89270176 684.2075498 41.76690634 678.93920898 40.67407227 C676.94223812 40.2617642 674.94297859 39.86213159 672.94335938 39.46289062 C671.68201172 39.20314453 670.42066406 38.94339844 669.12109375 38.67578125 C667.97390869 38.44125244 666.82672363 38.20672363 665.64477539 37.96508789 C662.8984375 37.203125 662.8984375 37.203125 660.8984375 35.203125 C661.8884375 35.203125 662.8784375 35.203125 663.8984375 35.203125 C663.8984375 34.543125 663.8984375 33.883125 663.8984375 33.203125 C664.62740234 33.35386475 665.35636719 33.50460449 666.10742188 33.65991211 C668.58738588 34.1425853 671.05387204 34.53987295 673.5546875 34.89453125 C692.87692162 37.74121622 711.86124681 41.89376961 730.8984375 46.203125 C731.8109729 46.4091333 732.7235083 46.6151416 733.66369629 46.82739258 C755.98523051 51.87162211 778.23285928 57.14326731 800.3359375 63.078125 C801.16830933 63.3011026 802.00068115 63.5240802 802.85827637 63.7538147 C807.47645541 64.99561453 812.08538295 66.265779 816.68475342 67.57556152 C818.19928237 68.00491956 819.71553781 68.42822115 821.23321533 68.84631348 C823.49279395 69.47157821 825.74471435 70.1193476 827.99609375 70.7734375 C828.67957382 70.9586496 829.36305389 71.14386169 830.06724548 71.33468628 C831.95336914 71.89892578 831.95336914 71.89892578 834.8984375 73.203125 C835.82983398 75.35498047 835.82983398 75.35498047 835.8984375 77.203125 C834.9084375 77.203125 833.9184375 77.203125 832.8984375 77.203125 C832.5684375 78.193125 832.2384375 79.183125 831.8984375 80.203125 C825.32500164 80.30332981 818.9351881 79.93642692 812.3984375 79.265625 C811.51285156 79.17861328 810.62726562 79.09160156 809.71484375 79.00195312 C807.10849393 78.74361449 804.50337806 78.4752754 801.8984375 78.203125 C801.18880859 78.13077637 800.47917969 78.05842773 799.74804688 77.98388672 C791.32450584 77.09255854 782.94574295 75.84150562 774.55859375 74.6640625 C766.26763486 73.50798707 757.9959177 72.42534521 749.6484375 71.765625 C742.73778816 71.15156166 735.61312861 70.45302362 728.89453125 68.671875 C726.23750907 68.04791676 723.61954209 67.89360232 720.8984375 67.703125 C715.33463069 67.31365852 715.33463069 67.31365852 712.94458008 66.70800781 C709.55101689 65.87065085 706.06159305 65.74127823 702.5859375 65.453125 C691.82235774 64.49363436 681.1140715 63.14809963 670.3984375 61.765625 C669.54031464 61.65498718 668.68219177 61.54434937 667.79806519 61.43035889 C659.31642289 60.3333821 650.8363755 59.22987169 642.37597656 57.9777832 C641.47588867 57.845896 640.57580078 57.71400879 639.6484375 57.578125 C638.99385559 57.48045837 638.33927368 57.38279175 637.66485596 57.28216553 C630.39157696 56.22215978 623.09519894 55.4141762 615.7890625 54.6171875 C614.54527832 54.48030518 613.30149414 54.34342285 612.02001953 54.20239258 C608.97963496 53.86797948 605.9391086 53.53492097 602.8984375 53.203125 C603.87672012 53.39611679 604.85500275 53.58910858 605.8629303 53.78794861 C615.28512729 55.64758707 624.70595879 57.51401946 634.12563419 59.38638973 C638.96326078 60.34776888 643.80127037 61.30710207 648.64038086 62.26098633 C670.48087663 66.56780651 692.25335815 71.04354131 713.91114807 76.20018005 C722.43618463 78.22348964 730.95718478 80.03581344 739.58285522 81.58036804 C743.51811396 82.31951717 747.2507576 83.30539993 751.0859375 84.453125 C766.51083434 88.90772883 782.20260278 92.3867723 797.8243103 96.07548523 C801.56721566 96.95974043 805.30960358 97.84617639 809.05200195 98.73257446 C811.76906003 99.37481689 814.48702662 100.01310023 817.20507812 100.65112305 C830.16258449 103.70680008 842.95378727 107.09876027 855.5859375 111.328125 C856.35615234 111.57949219 857.12636719 111.83085938 857.91992188 112.08984375 C861.23671001 113.19447589 863.97368319 114.25328879 866.8984375 116.203125 C866.8984375 116.863125 866.8984375 117.523125 866.8984375 118.203125 C867.5584375 118.203125 868.2184375 118.203125 868.8984375 118.203125 C869.2284375 119.853125 869.5584375 121.503125 869.8984375 123.203125 C869.2384375 123.203125 868.5784375 123.203125 867.8984375 123.203125 C867.8984375 123.863125 867.8984375 124.523125 867.8984375 125.203125 C854.2962094 125.5160597 840.99579713 125.62471146 827.57641602 123.20654297 C821.20115987 122.07174894 814.81392535 121.01256262 808.42578125 119.953125 C805.74232556 119.50706513 803.05889022 119.06088488 800.37548828 118.61450195 C799.68243119 118.49925076 798.9893741 118.38399958 798.27531528 118.26525593 C791.23640581 117.09416743 784.19917454 115.91313092 777.1619606 114.73190498 C746.7758374 109.63310431 716.38717796 104.57898219 685.93823242 99.86669922 C673.94948095 98.00954572 661.9822063 96.05624733 650.0234375 94.015625 C637.1167891 91.81345989 624.18403807 89.96434353 611.2019043 88.26629639 C601.21168959 86.95906616 591.29577671 85.48177167 581.38500977 83.65405273 C572.62232993 82.07400228 563.80550365 80.98457284 554.97296143 79.88546753 C547.74332149 78.98439931 540.55864154 78.05204328 533.3984375 76.703125 C525.1256218 75.15353414 516.80550878 74.12391228 508.45584106 73.07662964 C498.06111836 71.77026267 487.6962143 70.32091896 477.3359375 68.765625 C463.18617835 66.64359382 449.01495911 64.7278986 434.82397461 62.90258789 C428.36269612 62.06922395 421.91109258 61.22695006 415.4765625 60.203125 C406.20804976 58.74537574 396.88377474 57.71209829 387.56811523 56.60668945 C373.40849125 54.92188076 359.2716344 53.08031097 345.13531494 51.21214294 C260.09789379 39.97639867 175.00896168 29.36389595 44.8359375 16.765625 C44.16526245 16.70505039 43.4945874 16.64447578 42.80358887 16.58206558 C38.34489638 16.17950767 33.88561965 15.78418222 29.42578125 15.39453125 C28.23487885 15.2903035 27.04397644 15.18607574 25.81698608 15.07868958 C19.41022251 14.53434987 13.0052932 14.07386395 6.58642578 13.70654297 C5.89833234 13.66590571 5.2102389 13.62526846 4.50129414 13.58339977 C1.19049951 13.38805685 -2.11925658 13.20554663 -5.43214417 13.04725647 C-7.20101234 12.94639992 -7.20101234 12.94639992 -9.00561523 12.84350586 C-10.04048569 12.79173691 -11.07535614 12.73996796 -12.1415863 12.68663025 C-15.59694458 12.12220549 -18.09632547 10.97945291 -21.1015625 9.203125 C-21.4315625 8.543125 -21.7615625 7.883125 -22.1015625 7.203125 C-21.4415625 7.203125 -20.7815625 7.203125 -20.1015625 7.203125 C-20.1015625 6.543125 -20.1015625 5.883125 -20.1015625 5.203125 C-18.85420683 4.5521991 -17.60354418 3.90760831 -16.3515625 3.265625 C-15.65546875 2.90597656 -14.959375 2.54632813 -14.2421875 2.17578125 C-9.5700583 0.05286123 -5.07115877 0.02926285 0 0 Z M703.8984375 42.203125 C704.8984375 44.203125 704.8984375 44.203125 704.8984375 44.203125 Z M592.8984375 51.203125 C592.8984375 51.533125 592.8984375 51.863125 592.8984375 52.203125 C594.5484375 52.203125 596.1984375 52.203125 597.8984375 52.203125 C597.8984375 51.873125 597.8984375 51.543125 597.8984375 51.203125 C596.2484375 51.203125 594.5984375 51.203125 592.8984375 51.203125 Z M788.8984375 68.203125 C788.8984375 68.533125 788.8984375 68.863125 788.8984375 69.203125 C790.5484375 69.203125 792.1984375 69.203125 793.8984375 69.203125 C793.8984375 68.873125 793.8984375 68.543125 793.8984375 68.203125 C792.2484375 68.203125 790.5984375 68.203125 788.8984375 68.203125 Z M696.8984375 86.203125 C700.8984375 87.203125 700.8984375 87.203125 700.8984375 87.203125 Z " fill="#FF6C00" transform="translate(22.1015625,-0.203125)"/>
<path d="M0 0 C2 1 2 1 2 1 Z " fill="#FF6C00" transform="translate(680,34)"/>
</svg>
